<svg id="Component_33_13" data-name="Component 33 – 13" xmlns="http://www.w3.org/2000/svg" width="49.088" height="55.342" viewBox="0 0 49.088 55.342">
  <path id="Path_1122" data-name="Path 1122" d="M-4373.509,8172.667s-5.723,8.006-5.011,9.27,1.4.862,2.506,1.317a3.074,3.074,0,0,1,1.941,1.973c.479,1.067-.008,6.813.563,9.679a2.3,2.3,0,0,0,2.317,1.823c2.095.165,6.365-.2,7.11.149a3.35,3.35,0,0,1,1.238,1.182c.487,1.511.236,3.9.718,4.854s2.68,1.77,6.829,2.163,5.033.162,9.768-.208a23.128,23.128,0,0,0,8.712-2.673s-3.5-6.579-1.66-12.252c1.146-3.546,5.39-8.775,7.6-12.92a10.653,10.653,0,0,0,1.3-4.911,30.285,30.285,0,0,0-.121-5.79c-.351-2.589-2.5-17.193-22.3-16.349s-21.511,16.036-21.511,16.036Z" transform="translate(4378.581 -8149.939)" fill="#f3f3f3"/>
  <g id="brain-svgrepo-com" transform="translate(8.411 3.282)">
    <path id="Path_1105" data-name="Path 1105" d="M285.912,321.277a3.123,3.123,0,0,1-2.752-1.238l-2.622-3.5,1.117-.464a14.969,14.969,0,0,1,3.634-.964,19.794,19.794,0,0,1,2.9-.22c.7,0,1.293.039,1.816.072.432.029.8.045,1.161.045l.871-.011.214.789,0,.026c.546,1.657-.63,3.468-3.031,4.643a7.88,7.88,0,0,1-3.313.823Z" transform="translate(-259.913 -295.972)" fill="#e4e4e4"/>
    <path id="Path_1106" data-name="Path 1106" d="M237.389,345.268l-4.382-5.453.915-.558c.3-.184.6-.373.89-.566.317-.209.642-.417.981-.623l.731-.445,5.718,7.645h-4.853Z" transform="translate(-215.877 -317.035)" fill="#e4e4e4"/>
    <path id="Path_1107" data-name="Path 1107" d="M25,93c-3.74,0-6.127-2.787-6.127-4.705,0-1.719.383-1.861.383-1.861l-.489-.05c-5.385-.55-6.1-3.161-6.052-4.668a8.015,8.015,0,0,1,2.361-4.85l1.688-1.612s6.386-3.854,9.969-4.488l1.518-.269-.012.038.565-.046c.6-.05,1.22-.075,1.828-.075,11.95,0,15.86,5.57,17.127,8.89,1.156,3.029.807,6.178-.23,7.109C45.751,88,44.67,88.516,43.08,88.516h0c-.359,0-.745-.025-1.189-.054-.333-.023-.7-.043-1.086-.058l-.652-.025-.009-.029-1.288.08c-.607.038-1.148.093-1.7.174a13.837,13.837,0,0,0-6.429,2.515A8.974,8.974,0,0,1,25,93Zm14.1-7c.213.375.4.74.562,1.109l.292.655v0A9.257,9.257,0,0,0,39.1,86Z" transform="translate(-11.776 -69.469)" fill="#ffe6e4"/>
    <g id="Group_700" data-name="Group 700" transform="translate(0 0)">
      <path id="Path_1108" data-name="Path 1108" d="M36.856,67.089c-1.353-3.548-5.493-9.5-18-9.5C8.642,57.593.191,64.272,0,69.8c-.05,1.454.5,4.759,6.249,5.56a5.54,5.54,0,0,0-.093,1.051c0,2.358,2.688,5.647,7.064,5.647a9.98,9.98,0,0,0,3.59-.586l3.97,4.941a.936.936,0,0,0,.732.351h4.849a.933.933,0,0,0,.563-.188.945.945,0,0,0,.189-1.318l-1.069-1.429a8.7,8.7,0,0,0,3.676-.911c2.751-1.346,4.119-3.583,3.529-5.651a9.268,9.268,0,0,0,3.126-2.038C37.66,74.078,38.208,70.636,36.856,67.089Zm-14.893,17.8-3.429-4.266c.309-.189.613-.383.917-.582s.624-.406.954-.606l4.08,5.455ZM28.9,81.231c-1.808.881-4.1,1.082-4.863-.085L22.1,78.563a13.9,13.9,0,0,1,3.409-.9,19.593,19.593,0,0,1,4.543-.138c.489.033.93.05,1.354.045a.768.768,0,0,0,.014.083C31.939,79.017,30.528,80.433,28.9,81.231Zm6.223-7.4c-2.22,1.994-3.025,1.941-4.944,1.814-.34-.023-.713-.043-1.112-.059a11.408,11.408,0,0,0-1.123-2.255c-.957-1.6-1.463-2.575-.741-4.025a.939.939,0,1,0-1.679-.842c-1.219,2.444-.093,4.325.811,5.836a12.391,12.391,0,0,1,.689,1.314c-.541.034-1.12.086-1.781.182a14.826,14.826,0,0,0-6.816,2.663,8.092,8.092,0,0,1-5.2,1.718c-3.355,0-5.186-2.487-5.186-3.764,0-2.634,2.5-2.823,6.612-2.823,2.789,0,5.423,0,6.7-1.592a3.791,3.791,0,0,0,.533-3.314.938.938,0,1,0-1.834.4,2.072,2.072,0,0,1-.163,1.734c-.713.89-3.117.89-5.237.89-2.629,0-5.969,0-7.564,1.858-2.195-.224-5.3-1.014-5.207-3.7A7.216,7.216,0,0,1,4,65.616a4.807,4.807,0,0,0,2.616,3.7A2.74,2.74,0,0,0,7.6,69.5a3.189,3.189,0,0,0,2.809-2.075.939.939,0,1,0-1.679-.842c-.425.856-.9,1.176-1.435.976-.845-.332-1.764-1.917-1.446-3.668a20.935,20.935,0,0,1,9.269-4.078,11.52,11.52,0,0,1-1.009,2.09c-.739,1.281-1.375,2.39-.833,3.334a1.93,1.93,0,0,0,1.822.825.939.939,0,0,0,.939-.941,1.032,1.032,0,0,0-1.008-.943,13.389,13.389,0,0,1,.706-1.336,9.06,9.06,0,0,0,1.368-3.3q.862-.071,1.751-.072c11.386,0,15.067,5.19,16.248,8.284C36.222,70.695,35.7,73.31,35.121,73.833Z" transform="translate(0 -57.593)" fill="#252525"/>
      <path id="Path_1109" data-name="Path 1109" d="M276.207,125.578c-2.552-1-5.666-.9-6.891,1.557a.944.944,0,0,0,.42,1.263.933.933,0,0,0,1.26-.421c.695-1.39,2.835-1.307,4.528-.647s3.3,2.086,2.924,3.406a.941.941,0,0,0,.642,1.165.911.911,0,0,0,.26.037.94.94,0,0,0,.9-.68C280.979,128.728,278.665,126.539,276.207,125.578Z" transform="translate(-249.424 -120.027)" fill="#252525"/>
    </g>
  </g>
</svg>
